<?xml version="1.0" encoding="UTF-8"?>
<svg width="88px" height="222px" viewBox="0 0 88 222" version="1.1" xmlns="http://www.w3.org/2000/svg" xmlns:xlink="http://www.w3.org/1999/xlink">
    <!-- Generator: Sketch 61.2 (89653) - https://sketch.com -->
    <title>编组备份 2</title>
    <desc>Created with Sketch.</desc>
    <defs>
        <polygon id="path-1" points="0.331347465 0.0117529157 19.3847887 0.0117529157 19.3847887 21.12 0.331347465 21.12"></polygon>
        <polygon id="path-3" points="0.446688 0.05136 35.083488 0.05136 35.083488 4.054896 0.446688 4.054896"></polygon>
        <polygon id="path-5" points="0 221.22864 87.87024 221.22864 87.87024 0.48 0 0.48"></polygon>
    </defs>
    <g id="Page-1" stroke="none" stroke-width="1" fill="none" fill-rule="evenodd">
        <g id="编组备份-2">
            <path d="M69.35664,192.416592 C69.64752,192.465072 74.20944,199.744752 74.20944,199.744752 L68.28864,203.675472 L61.3008,193.937232 L69.35664,192.416592 Z" id="Fill-1" fill="#FFCCA6"></path>
            <path d="M63.082416,220.411248 C63.082416,220.411248 69.836976,212.905488 72.991536,209.357328 C75.643056,206.371728 81.513936,201.074928 80.174736,199.705488 C77.482416,196.949328 74.179056,197.425968 72.588336,195.566448 C70.544496,197.977008 67.939536,199.847568 65.002416,201.013968 C65.060976,202.452048 65.251056,210.343248 62.510256,214.219248 C59.487696,218.494128 63.082416,220.411248 63.082416,220.411248" id="Fill-3" fill="#202042"></path>
            <g id="编组" transform="translate(62.400000, 200.108640)">
                <mask id="mask-2" fill="white">
                    <use xlink:href="#path-1"></use>
                </mask>
                <g id="Clip-6"></g>
                <path d="M1.172928,20.960304 C0.994368,21.158544 0.689568,21.174384 0.491328,20.995824 C0.293088,20.817744 0.276768,20.512464 0.455328,20.314224 C0.604608,20.148624 15.424128,3.680784 18.541248,0.173424 C18.542208,0.172944 18.542688,0.171984 18.543168,0.171504 C18.720768,-0.025776 19.024128,-0.042576 19.222848,0.133584 C19.422048,0.310704 19.439808,0.615984 19.263168,0.815184 C16.143648,4.324464 1.322208,20.794224 1.172928,20.960304" id="Fill-5" fill="#383854" mask="url(#mask-2)"></path>
            </g>
            <path d="M64.481136,210.099216 C64.889136,210.488016 65.237616,210.551856 65.410896,210.461136 C65.553456,210.387696 65.585136,210.199056 65.493456,209.988816 C65.376816,209.929296 64.960176,209.942256 64.481136,210.099216 M65.958576,210.839376 C65.889936,210.915696 65.806416,210.980976 65.708976,211.031856 C65.237616,211.277616 64.540656,211.133136 63.860016,210.380976 C63.853296,210.384816 63.846576,210.389136 63.839856,210.392976 C63.551376,210.569136 63.077616,210.938256 63.146256,211.436496 C63.237456,212.091696 63.617136,212.363376 63.620976,212.365776 C63.768816,212.464656 63.808176,212.664816 63.709296,212.812176 C63.609456,212.960496 63.410256,212.999376 63.262416,212.900016 C63.236976,212.883216 62.640816,212.472816 62.508816,211.524816 C62.409456,210.803856 62.863536,210.243696 63.464016,209.867376 C63.392976,209.760336 63.322416,209.645616 63.252816,209.523216 C62.796816,208.720176 62.732016,208.031856 63.061296,207.477936 C63.376656,206.948016 64.032816,206.586576 65.011056,206.404656 C65.700816,206.275536 66.301776,206.285616 66.326736,206.286096 C66.504336,206.289456 66.645936,206.435376 66.642576,206.612976 C66.639216,206.790576 66.492816,206.932176 66.315216,206.929296 C65.715216,206.918736 64.060656,207.056496 63.614256,207.807696 C63.412176,208.148016 63.478896,208.617936 63.812496,209.205456 C63.889776,209.340816 63.966576,209.464176 64.042896,209.574576 C64.157616,209.528976 64.272816,209.488656 64.387056,209.454096 C65.048496,209.255856 65.835696,209.212656 66.063216,209.687376 C66.265776,210.112176 66.215376,210.553776 65.958576,210.839376" id="Fill-7" fill="#383854"></path>
            <polygon id="Fill-9" fill="#FFCCA6" points="31.988784 193.4844 33.477264 202.5804 27.427344 203.67528 23.447664 192.4164"></polygon>
            <polygon id="Fill-11" fill="#1A1F2D" points="17.081616 181.82376 17.946096 183.69768 23.640336 196.05384 33.475536 196.05384 31.094256 185.19384 29.981616 180.126"></polygon>
            <path d="M17.081616,181.82376 L17.946096,183.69768 C18.914256,183.70296 21.217776,183.73368 23.774736,183.93096 C26.326896,184.13304 29.121936,184.50552 31.094256,185.19384 L29.981616,180.126 L17.081616,181.82376 Z" id="Fill-13" fill="#10141C"></path>
            <polygon id="Fill-15" fill="#1A1F2D" points="43.440384 170.430336 51.163584 181.917216 61.428864 197.187456 71.652384 193.983456 65.098944 178.977216 60.005184 167.324256"></polygon>
            <path d="M43.440384,170.430336 L51.163584,181.917216 C51.976224,181.445856 52.892544,181.021536 53.891424,180.674976 C54.129984,180.591936 54.378144,180.514176 54.626784,180.441696 C55.071744,180.307296 55.537824,180.188256 56.013984,180.089856 C56.226144,180.048096 56.433504,180.006816 56.650464,179.976096 C57.856704,179.779296 59.130624,179.712096 60.434784,179.815296 C62.463744,179.980896 63.980544,179.587776 65.098944,178.977216 L60.005184,167.324256 L43.440384,170.430336 Z" id="Fill-17" fill="#10141C"></path>
            <path d="M3.783168,138.70392 L8.302368,140.65512 C8.302368,140.65512 8.825088,139.94616 9.581088,138.90552 C10.010688,138.3204 10.507488,137.62728 11.035488,136.8972 C13.028448,134.1276 15.347328,130.81464 15.151008,130.70616 C14.809248,130.50936 5.543328,129.6396 5.543328,129.6396 C5.470848,129.78984 5.010048,132.15528 4.580448,134.43336 C4.554528,134.5884 4.523328,134.7492 4.492608,134.89896 L4.492608,134.90424 C4.114368,136.90248 3.783168,138.70392 3.783168,138.70392" id="Fill-19" fill="#FFCCA6"></path>
            <polygon id="Fill-21" fill="#FFCCA6" points="44.111616 24.157824 41.272416 39.080544 51.965376 38.419104 50.025216 23.602464"></polygon>
            <path d="M44.090304,24.270336 C44.090304,24.270336 41.680224,18.964416 42.046944,16.661376 C42.413184,14.358336 42.786144,6.497376 44.306304,6.598656 C45.006624,6.645696 45.380544,12.878496 45.380544,12.878496 C45.380544,12.878496 46.264704,11.818656 47.490144,12.324576 C48.715104,12.831456 48.472704,12.049536 49.826304,12.025536 C51.180384,12.001056 51.155904,13.110816 52.573824,12.579936 C53.594304,12.195936 54.070464,13.430016 53.993664,14.911296 C53.901984,16.910976 51.428544,23.526336 49.801824,23.717856 C48.175584,23.909376 44.090304,24.270336 44.090304,24.270336" id="Fill-23" fill="#FFCCA6"></path>
            <polygon id="Fill-25" fill="#FFCCA6" points="18.623808 76.215792 20.087808 80.814192 17.304288 91.103472 28.628928 89.229072 34.188768 79.973712 29.005248 77.931312 27.552288 73.372752"></polygon>
            <path d="M18.623808,76.215792 L20.087808,80.814192 C20.505408,80.900112 20.940288,80.923152 21.391968,80.871312 C24.686688,80.499792 27.180768,79.286832 29.005248,77.931312 L27.552288,73.372752 L18.623808,76.215792 Z" id="Fill-27" fill="#E8B089"></path>
            <polygon id="Fill-29" fill="#1B1E1E" points="50.918592 12.69312 65.323392 4.04784 47.233632 0.48 30.687072 4.04784 43.713792 12.37824"></polygon>
            <g id="编组" transform="translate(30.240000, 0.428640)">
                <mask id="mask-4" fill="white">
                    <use xlink:href="#path-3"></use>
                </mask>
                <g id="Clip-32"></g>
                <polygon id="Fill-31" fill="#292D2D" mask="url(#mask-4)" points="16.993728 0.630096 1.123488 4.052016 0.446688 3.619536 16.993728 0.051216 35.083488 3.619536 34.357728 4.054896"></polygon>
            </g>
            <path d="M56.621376,8.029536 L56.621376,15.059616 C50.563296,16.248576 44.332416,16.248576 38.274336,15.059616 L38.274336,8.029536 C43.839456,6.213696 49.819776,6.098016 55.451136,7.697376 L56.621376,8.029536 Z" id="Fill-33" fill="#282C2D"></path>
            <path d="M55.450896,7.697184 L56.621136,8.029344 L56.621136,8.887104 L55.450896,8.554464 C49.820016,6.955104 43.839696,7.070784 38.274576,8.887104 L38.274576,8.029344 C43.839696,6.213504 49.820016,6.097824 55.450896,7.697184" id="Fill-35" fill="#303333"></path>
            <polygon id="Fill-37" fill="#FCCF6B" points="34.541376 3.219216 34.541376 6.511056 34.541376 10.619856 34.884576 10.619856 34.884576 6.730416 34.884576 3.143856"></polygon>
            <path d="M33.760896,15.022368 L33.932256,15.022368 L33.932256,11.464608 C33.932256,11.045088 34.273536,10.703808 34.693056,10.703808 C35.113056,10.703808 35.454336,11.045088 35.454336,11.464608 L35.454336,15.022368 L35.625696,15.022368 L35.625696,11.464608 C35.625696,10.950528 35.207136,10.532448 34.693056,10.532448 C34.179456,10.532448 33.760896,10.950528 33.760896,11.464608 L33.760896,15.022368 Z" id="Fill-39" fill="#FCCF6B"></path>
            <mask id="mask-6" fill="white">
                <use xlink:href="#path-5"></use>
            </mask>
            <g id="Clip-42"></g>
            <polygon id="Fill-41" fill="#FCCF6B" mask="url(#mask-6)" points="35.12256 15.02256 35.29392 15.02256 35.29392 10.83264 35.12256 10.83264"></polygon>
            <polygon id="Fill-43" fill="#FCCF6B" mask="url(#mask-6)" points="34.77888 15.02256 34.95024 15.02256 34.95024 10.61808 34.77888 10.61808"></polygon>
            <polygon id="Fill-44" fill="#FCCF6B" mask="url(#mask-6)" points="34.43568 15.02256 34.60704 15.02256 34.60704 10.61808 34.43568 10.61808"></polygon>
            <polygon id="Fill-45" fill="#FCCF6B" mask="url(#mask-6)" points="34.09248 15.02256 34.26384 15.02256 34.26384 10.83264 34.09248 10.83264"></polygon>
            <path d="M16.263888,85.535952 C18.655248,87.865872 23.609328,92.203632 28.242288,93.145872 C32.362608,87.518832 31.850448,79.660752 31.291248,75.902832 C30.861648,76.466832 30.670128,76.870512 30.670128,76.870512 L30.452688,77.621232 L30.265968,78.257712 L29.008368,82.548912 C28.153968,85.484592 24.737808,86.788752 22.144368,85.173552 L19.411248,83.470512 C18.738288,83.791632 18.111888,84.154032 17.532048,84.552432 C17.454288,84.604272 17.376528,84.656112 17.304048,84.712752 C16.936848,84.971952 16.595088,85.246032 16.263888,85.535952" id="Fill-46" fill="#F9F9F9" mask="url(#mask-6)"></path>
            <path d="M28.128864,92.999856 C32.162784,87.490896 31.756224,79.854096 31.212384,76.009296 C31.238784,75.973776 31.263264,75.939696 31.291104,75.902736 C31.850304,79.660656 32.362464,87.518736 28.242144,93.145776 C23.609184,92.203536 18.655584,87.865776 16.263744,85.535856 C16.270464,85.530096 16.277664,85.524816 16.284384,85.519056 C18.721344,87.874896 23.577024,92.073936 28.128864,92.999856" id="Fill-47" fill="#DDDBD7" mask="url(#mask-6)"></path>
            <path d="M21.740544,139.76472 L9.834624,158.0124 L17.081664,181.82376 C17.081664,181.82376 20.016864,181.79304 23.386464,182.05656 C26.699904,182.32056 30.426624,182.86968 32.222784,184.02408 C35.846304,186.35352 46.070304,185.9652 47.105184,183.50616 C47.757504,181.95816 50.200704,179.95032 53.503584,178.80072 C53.741664,178.71768 53.990304,178.6404 54.238464,178.56792 C54.683424,178.43352 55.149504,178.31448 55.625664,178.2156 C55.838304,178.17432 56.045184,178.13304 56.262624,178.10184 C57.468864,177.90552 58.741824,177.83784 60.046464,177.94152 C63.530304,178.22616 65.492064,176.87016 66.548064,175.59144 C67.862784,174.00216 69.462624,172.67208 71.315904,171.77112 L75.777984,169.59672 L87.870144,163.70616 L52.152384,89.68248 L54.223104,30.92952 L51.851904,31.35384 L38.952384,33.6468 L38.175744,72.47064 C36.074304,72.56904 34.500384,73.2108 33.340704,73.98744 C33.258144,74.0388 33.175584,74.09592 33.097824,74.15304 C32.647584,74.47896 32.269344,74.81544 31.953504,75.13608 C31.689984,75.40584 31.467264,75.66984 31.291104,75.90264 C31.850304,79.66056 32.362464,87.51864 28.242144,93.14568 C23.609184,92.20344 18.655584,87.86568 16.263744,85.53576 C15.730464,86.00184 15.249504,86.49384 14.804064,87.01656 C9.032064,93.77208 10.093344,104.8236 10.093344,104.8236 L1.940544,133.42392 L12.805824,137.57016 L14.493504,138.2124 L18.246624,119.31768 L20.316864,119.96472 L21.740544,139.76472 Z" id="Fill-48" fill="#32393A" mask="url(#mask-6)"></path>
            <path d="M28.7856,94.387824 L30.09552,103.850544 L34.41744,128.407824 L39.07632,144.128784 L44.51184,160.822704 L53.27568,177.418224 C53.27568,177.418224 53.78832,178.019184 54.23856,178.567824 C54.68352,178.433424 55.1496,178.314384 55.62576,178.215984 C55.83792,178.174704 56.04528,178.132944 56.26272,178.101744 C38.11392,152.700624 30.09552,94.677744 30.09552,94.677744 C36.09504,86.462544 33.77568,75.742224 33.3408,73.987344 C33.25824,74.038704 33.17568,74.096304 33.09744,74.152944 C32.6472,74.478864 32.26944,74.815824 31.9536,75.136464 L32.47632,77.620944 L31.1616,89.630544 L28.7856,94.387824 Z" id="Fill-49" fill="#2D3333" mask="url(#mask-6)"></path>
            <path d="M18.190656,218.749056 C18.190656,218.749056 26.507616,213.529056 30.402816,211.050816 C33.678816,208.965216 40.580256,205.575936 39.692736,203.938656 C37.909056,200.642976 34.692096,200.209056 33.700416,198.045696 C31.146816,199.755936 28.211616,200.811456 25.154016,201.119136 C24.825696,202.479936 22.900896,209.911296 19.305216,212.805216 C15.339456,215.998656 18.190656,218.749056 18.190656,218.749056" id="Fill-50" fill="#202042" mask="url(#mask-6)"></path>
            <path d="M18.474048,219.49488 C18.254208,219.63264 17.964768,219.5664 17.827008,219.34656 C17.689248,219.1272 17.755488,218.83776 17.974848,218.7 C18.158688,218.5848 36.406368,207.13104 40.255968,204.68208 C40.256928,204.6816 40.257888,204.68112 40.258368,204.68064 C40.476768,204.54336 40.765248,204.60816 40.903968,204.8256 C41.043168,205.04448 40.978848,205.33488 40.759968,205.47408 C36.907488,207.92448 18.657888,219.37968 18.474048,219.49488" id="Fill-51" fill="#383854" mask="url(#mask-6)"></path>
            <path d="M22.24608,209.477664 C22.524,209.949504 22.83312,210.102624 23.01936,210.064224 C23.17248,210.032544 23.25216,209.865024 23.2224,209.643744 C23.12928,209.557344 22.73616,209.457984 22.24608,209.477664 M23.43072,210.563904 C23.34576,210.616704 23.25024,210.655104 23.14608,210.676704 C22.63968,210.781344 22.02624,210.460224 21.5904,209.575584 C21.5832,209.577504 21.57552,209.579424 21.56784,209.581824 C21.25152,209.668704 20.7096,209.888544 20.64144,210.372384 C20.55216,211.009344 20.83536,211.365024 20.83776,211.367904 C20.9496,211.500384 20.93328,211.697664 20.80128,211.809024 C20.6688,211.921344 20.472,211.904544 20.36016,211.772544 C20.34096,211.749504 19.89216,211.207584 20.02176,210.285504 C20.12064,209.584704 20.6952,209.181984 21.35664,208.989504 C21.31872,208.870464 21.2832,208.744704 21.25104,208.611264 C21.0384,207.739104 21.16128,207.078144 21.6168,206.647584 C22.05264,206.236224 22.76256,206.073024 23.72592,206.163264 C24.4056,206.227104 24.96528,206.395584 24.98832,206.403264 C25.15392,206.453184 25.24656,206.627904 25.19616,206.793024 C25.14624,206.958624 24.97152,207.051744 24.80592,207.001824 C24.24768,206.831904 22.66368,206.519904 22.0464,207.103584 C21.76656,207.367584 21.70368,207.825504 21.85872,208.463904 C21.8952,208.610784 21.93408,208.746624 21.97632,208.870464 C22.09584,208.857984 22.2144,208.850784 22.3296,208.849344 C23.00112,208.839744 23.74944,209.009184 23.83536,209.513664 C23.91168,209.965344 23.74704,210.365184 23.43072,210.563904" id="Fill-52" fill="#383854" mask="url(#mask-6)"></path>
            <path d="M19.304448,80.871408 C27.895488,79.899408 31.075488,73.172688 31.075488,73.172688 C31.075488,73.172688 33.592608,71.181648 32.740128,70.197648 C31.888128,69.219888 30.143328,70.284048 30.143328,70.284048 C30.143328,70.284048 30.469728,67.567248 29.537088,64.901808 C29.531328,64.896048 29.531328,64.896048 29.531328,64.890288 C28.467648,61.864368 25.784928,58.907568 19.184448,60.011568 C15.066048,60.697968 12.943968,63.769488 12.286368,67.349808 L12.251808,67.521648 C11.193888,73.744368 14.477088,81.421008 19.304448,80.871408" id="Fill-53" fill="#FFCCA6" mask="url(#mask-6)"></path>
            <path d="M18.117312,64.127184 C16.108512,65.402544 14.293632,65.708784 13.134432,66.469584 C14.055552,64.911504 16.361472,64.908144 18.999072,63.233904 C19.881312,62.679504 21.569952,61.502544 21.433152,62.396784 C21.275712,63.416304 18.537312,65.352624 21.083232,65.146704 C23.628672,64.940784 25.349472,63.081264 26.174592,63.219984 C26.999712,63.358704 24.998112,65.126544 26.035872,65.215344 C27.903552,65.374224 28.978272,65.069904 29.542272,64.734864 C28.678752,66.498864 28.388832,69.754704 30.770592,70.546224 L31.600032,72.188784 C31.139232,72.872304 30.821472,73.286544 30.821472,73.286544 L29.888832,71.439504 C27.507072,70.647984 27.796512,67.392624 28.660512,65.628624 C28.096512,65.963184 27.021792,66.267984 25.154112,66.109104 C24.116352,66.020304 26.117952,64.252944 25.292832,64.114224 C24.467712,63.975024 22.746912,65.834544 20.200992,66.039984 C17.655552,66.246384 20.393952,64.309584 20.550912,63.290544 C20.688192,62.396784 18.999552,63.573264 18.117312,64.127184" id="Fill-54" fill="#E8B089" mask="url(#mask-6)"></path>
            <path d="M12.251856,67.37424 C12.274896,67.33392 12.297936,67.29984 12.320496,67.26528 C12.308976,67.248 12.297936,67.22496 12.286416,67.20288 L12.251856,67.37424 Z" id="Fill-55" fill="#E8B089" mask="url(#mask-6)"></path>
            <path d="M31.144608,73.072368 L30.211968,71.225808 C27.830208,70.434288 28.120128,67.178928 28.983648,65.414448 C28.419648,65.749008 27.344928,66.053808 25.477248,65.894928 C24.439488,65.806128 26.441088,64.038768 25.615968,63.900048 C24.790848,63.760848 23.070048,65.620368 20.524608,65.826288 C17.978688,66.032208 20.717088,64.095888 20.874528,63.076368 C21.011808,62.182608 19.322688,63.359568 18.440928,63.913008 C15.163488,65.993808 12.394848,65.489808 12.162528,68.599728 C12.162528,68.599728 9.534528,64.509168 9.534528,62.574288 C9.534528,57.688368 18.393888,53.092368 22.061088,53.461008 C25.276128,53.788368 27.663168,56.552208 28.200288,57.228048 C28.468128,56.829648 28.839648,56.512368 29.274528,56.309328 C30.096768,55.887408 30.918528,55.845648 31.115808,56.217648 C31.313568,56.588688 30.794688,57.233328 29.972928,57.655248 C29.922528,57.680208 29.874048,57.705168 29.824128,57.726768 C31.063968,58.080528 32.823168,58.731408 34.111968,59.864208 C38.415168,63.623568 31.144608,73.072368 31.144608,73.072368" id="Fill-56" fill="#083044" mask="url(#mask-6)"></path>
            <path d="M29.150064,71.060016 C29.150064,71.060016 31.344624,69.124176 32.624784,70.091856 C33.905424,71.060016 30.469104,73.624656 30.469104,73.624656 L29.150064,71.060016 Z" id="Fill-57" fill="#FFCCA6" mask="url(#mask-6)"></path>
            <path d="M8.304528,140.656272 C9.243888,143.110512 9.255408,146.486832 9.041808,147.014832 L8.173488,149.175792 L6.610128,148.172112 C6.477648,147.571152 7.081008,146.765712 6.403248,146.325552 C5.725488,145.884912 4.637328,146.535792 4.405968,147.006192 C3.849648,148.136592 2.926608,149.962032 4.289808,151.498512 C5.800368,153.204912 4.852368,154.870512 4.852368,154.870512 C4.852368,154.870512 1.981488,152.974512 1.661808,152.692752 C1.342128,152.410992 -0.085392,148.945392 0.004368,147.445872 C0.081168,146.172912 2.635728,140.620272 3.203088,139.578672 C3.332208,139.342032 3.484848,139.119312 3.659568,138.913392 C3.698928,138.846672 3.740688,138.775152 3.783888,138.702192 L8.304528,140.656272 Z" id="Fill-58" fill="#FFCCA6" mask="url(#mask-6)"></path>
            <path d="M47.809584,16.667184 C47.809584,16.667184 48.537264,15.513264 48.464784,15.022224 C48.391824,14.531664 48.139344,14.580144 48.139344,14.580144 C48.139344,14.580144 47.251344,14.750064 47.154384,14.750064 C47.057424,14.750064 45.771024,14.979504 45.504144,15.022224 C45.237264,15.065424 43.223184,15.434064 43.223184,15.434064 C43.223184,15.434064 42.835344,15.818064 42.762384,15.951504 C42.689424,16.084464 42.374064,16.667184 42.374064,16.667184 L42.592464,17.516304 L43.539024,17.516304 L45.747024,17.516304 L47.809584,16.667184 Z" id="Fill-59" fill="#FFCCA6" mask="url(#mask-6)"></path>
            <path d="M46.746672,20.937024 C46.796592,20.104704 46.595952,18.997344 46.151472,17.646624 L46.126512,17.569824 C46.125072,17.565504 46.123152,17.560224 46.121712,17.554944 C46.262832,17.493984 46.627632,17.396544 47.105712,17.269344 C47.689392,17.113824 48.113712,16.806624 48.366672,16.356384 C48.820272,15.550944 48.546192,14.587584 48.534672,14.546784 L48.478512,14.357184 L48.281712,14.376384 C48.257232,14.378784 45.810672,14.616384 44.294352,14.918304 C42.640752,15.248064 42.238992,15.981024 42.127152,17.055744 L42.602832,17.105184 C42.698832,16.183104 43.001232,15.664224 44.387952,15.387264 C45.621072,15.141984 47.489712,14.938464 48.115152,14.873664 C48.160272,15.152544 48.198192,15.682944 47.948592,16.124544 C47.760432,16.456704 47.435952,16.686624 46.982832,16.807104 C45.985872,17.072544 45.778512,17.127744 45.669552,17.326944 C45.591792,17.468064 45.635472,17.605344 45.670512,17.715264 L45.696912,17.795904 C46.122672,19.089024 46.315152,20.136864 46.269072,20.908224 L46.746672,20.937024 Z" id="Fill-60" fill="#E8B089" mask="url(#mask-6)"></path>
            <path d="M14.803968,87.016704 C17.330208,89.490624 22.568928,94.061664 27.745248,95.153664 C28.547808,102.002784 34.966368,152.131584 53.503488,178.800864 C54.176448,178.567584 54.885408,178.370784 55.625568,178.215744 C36.659328,151.593024 30.338688,99.642144 29.764128,94.563744 C32.383488,91.101024 33.760608,86.364384 33.750048,80.835744 C33.744768,77.879904 33.351648,75.426624 33.097728,74.152704 C32.269248,74.747904 31.679328,75.390144 31.291008,75.902784 C31.850208,79.660704 32.362848,87.518784 28.242048,93.145824 C23.609088,92.203584 18.655488,87.865824 16.264128,85.535904 C15.730848,86.001984 15.249408,86.493504 14.803968,87.016704" id="Fill-61" fill="#FCCF6B" mask="url(#mask-6)"></path>
            <path d="M55.333968,178.215792 C36.367248,151.593072 30.046608,99.642192 29.472048,94.563792 C32.091408,91.101072 33.468528,86.364432 33.457968,80.835792 C33.453168,78.018192 33.096528,75.669072 32.843568,74.351472 C32.928528,74.285712 33.005808,74.218512 33.097008,74.152752 C33.350928,75.426192 33.744048,77.879952 33.749328,80.835792 C33.759888,86.364432 32.382768,91.101072 29.763408,94.563792 C30.337968,99.642192 36.658608,151.593072 55.624848,178.215792 C54.884688,178.370832 54.175728,178.567632 53.502768,178.800912 C53.485488,178.776432 53.469168,178.750512 53.451888,178.726032 C54.054288,178.527792 54.679728,178.353072 55.333968,178.215792" id="Fill-62" fill="#E2B252" mask="url(#mask-6)"></path>
            <path d="M17.304288,84.7128 C21.041568,88.43472 24.603168,91.32288 26.653248,91.344 L26.668608,91.344 C27.196608,91.344 27.615648,91.15248 27.916128,90.78 C31.223808,86.68032 30.794208,79.31904 30.452448,77.62128 L30.266208,78.25776 C30.504288,80.5512 30.685248,86.93376 27.714048,90.61968 C27.460608,90.92976 27.118848,91.0848 26.668608,91.0848 L26.653248,91.0848 C24.691008,91.06416 21.212448,88.22256 17.532288,84.55248 C17.454528,84.60384 17.376768,84.65616 17.304288,84.7128" id="Fill-63" fill="#32393A" mask="url(#mask-6)"></path>
            <path d="M13.677312,70.524672 C13.677312,71.225472 14.038272,71.793792 14.483712,71.793792 C14.929152,71.793792 15.290112,71.225472 15.290112,70.524672 C15.290112,69.823872 14.929152,69.255552 14.483712,69.255552 C14.038272,69.255552 13.677312,69.823872 13.677312,70.524672" id="Fill-64" fill="#151212" mask="url(#mask-6)"></path>
            <path d="M19.361376,70.685472 C19.361376,71.386272 19.722336,71.955072 20.167776,71.955072 C20.613216,71.955072 20.974176,71.386272 20.974176,70.685472 C20.974176,69.984672 20.613216,69.416352 20.167776,69.416352 C19.722336,69.416352 19.361376,69.984672 19.361376,70.685472" id="Fill-65" fill="#151212" mask="url(#mask-6)"></path>
            <path d="M14.672496,74.149056 C14.712336,74.526336 14.792496,74.881056 14.895696,75.213216 C15.324816,76.579776 16.233936,77.523456 17.292336,77.523456 C18.344496,77.523456 19.254096,76.579776 19.688976,75.213216 C19.791696,74.881056 19.871856,74.526336 19.912176,74.149056 C19.952016,73.771776 19.648656,73.434336 19.265616,73.434336 L15.319056,73.434336 C14.935536,73.434336 14.626896,73.771776 14.672496,74.149056" id="Fill-66" fill="#E9443B" mask="url(#mask-6)"></path>
            <path d="M14.672496,74.149056 C14.712336,74.526336 14.792496,74.881056 14.895696,75.213216 L19.688976,75.213216 C19.791696,74.881056 19.871856,74.526336 19.912176,74.149056 C19.952016,73.771776 19.648656,73.434336 19.265616,73.434336 L15.319056,73.434336 C14.935536,73.434336 14.626896,73.771776 14.672496,74.149056" id="Fill-67" fill="#FFFFFF" mask="url(#mask-6)"></path>
            <path d="M15.381696,68.4336 C15.452256,68.4336 15.513696,68.38128 15.523296,68.3088 C15.533376,68.23056 15.478176,68.15904 15.399936,68.14848 L13.076256,67.84464 C13.000896,67.83504 12.926016,67.88976 12.915936,67.968 C12.905856,68.04624 12.960576,68.11824 13.039296,68.12832 L15.362976,68.43216 C15.369216,68.43312 15.375456,68.4336 15.381696,68.4336" id="Fill-68" fill="#151212" mask="url(#mask-6)"></path>
            <path d="M19.687152,68.585472 C19.693392,68.585472 19.699632,68.584992 19.705872,68.584032 L22.029552,68.280192 C22.107792,68.270112 22.162992,68.198112 22.152912,68.119872 C22.142352,68.041632 22.070352,67.985952 21.992592,67.996512 L19.668912,68.300352 C19.590192,68.310912 19.535472,68.382432 19.545552,68.460672 C19.555152,68.533152 19.616592,68.585472 19.687152,68.585472" id="Fill-69" fill="#151212" mask="url(#mask-6)"></path>
            <path d="M32.05656,71.757984 C32.11416,71.757984 32.16792,71.722944 32.18952,71.666304 C32.1972,71.646624 32.37288,71.175264 32.15352,70.780224 C32.02152,70.542624 31.78152,70.388064 31.44024,70.321824 C31.36488,70.307424 31.2876,70.357344 31.27224,70.434624 C31.25688,70.512384 31.30776,70.587744 31.38552,70.602624 C31.63944,70.652064 31.81368,70.758144 31.90248,70.917504 C32.05752,71.195424 31.9236,71.561184 31.92264,71.564544 C31.8948,71.638464 31.93176,71.720544 32.00568,71.748384 C32.02248,71.755104 32.03928,71.757984 32.05656,71.757984" id="Fill-70" fill="#DD996B" mask="url(#mask-6)"></path>
            <path d="M31.30536,71.54376 C31.36776,71.54376 31.42536,71.502 31.44312,71.43912 C31.4868,71.2836 31.55448,71.18088 31.64472,71.13432 C31.74456,71.08248 31.84632,71.11512 31.84728,71.11512 C31.92264,71.14056 32.00328,71.10264 32.02968,71.02824 C32.05608,70.95384 32.0172,70.87224 31.9428,70.84584 C31.92024,70.83816 31.72152,70.77336 31.5132,70.8804 C31.35,70.96488 31.23384,71.12712 31.1676,71.36184 C31.14648,71.43768 31.19064,71.5164 31.26648,71.538 C31.27992,71.54184 31.2924,71.54376 31.30536,71.54376" id="Fill-71" fill="#DD996B" mask="url(#mask-6)"></path>
            <polygon id="Fill-72" fill="#2D3333" mask="url(#mask-6)" points="48.74616 91.34424 75.77784 169.59672 87.87 163.70616 52.15224 89.68248 54.22296 30.92952 51.85224 31.35384"></polygon>
            <path d="M9.834528,158.012208 L17.081568,181.823568 C17.081568,181.823568 20.016768,181.792848 23.386368,182.056848 C19.654368,173.277648 13.939488,159.756528 13.950048,159.368208 C13.965408,158.783088 26.534208,143.642448 26.534208,143.642448 L22.247808,117.190128 L17.200608,115.896048 L12.805728,137.569968 L14.493408,138.212208 L18.246528,119.317968 L20.316768,119.964528 L21.740448,139.764528 L9.834528,158.012208 Z" id="Fill-73" fill="#2D3333" mask="url(#mask-6)"></path>
            <path d="M4.492416,134.899056 L4.492416,134.904336 L9.580896,138.905616 C10.010496,138.320496 10.507776,137.627376 11.035296,136.897296 L4.580736,134.432976 C4.554336,134.588496 4.523616,134.749296 4.492416,134.899056" id="Fill-74" fill="#E8B089" mask="url(#mask-6)"></path>
            <polyline id="Fill-75" fill="#E8B089" mask="url(#mask-6)" points="51.058512 31.494672 42.744912 31.341552 42.374352 33.038832 51.058512 31.670832"></polyline>
            <path d="M22.154208,74.72328 C22.154208,76.05528 23.234208,77.13576 24.566688,77.13576 C25.899168,77.13576 26.979648,76.05528 26.979648,74.72328 C26.979648,73.3908 25.899168,72.3108 24.566688,72.3108 C23.234208,72.3108 22.154208,73.3908 22.154208,74.72328" id="Fill-76" fill="#FFBBBB" mask="url(#mask-6)"></path>
        </g>
    </g>
</svg>